<?xml version="1.0" standalone="no"?>
<!DOCTYPE svg PUBLIC "-//W3C//DTD SVG 20010904//EN"
 "http://www.w3.org/TR/2001/REC-SVG-20010904/DTD/svg10.dtd">
<svg version="1.0" xmlns="http://www.w3.org/2000/svg"
 width="270.000000pt" height="186.000000pt" viewBox="0 0 270.000000 186.000000"
 preserveAspectRatio="xMidYMid meet">

<g transform="translate(0.000000,186.000000) scale(0.100000,-0.100000)"
fill="#000000" stroke="none">
<path d="M150 1830 c46 -38 93 -61 143 -68 40 -5 40 -5 33 24 -4 16 -9 30 -10
32 -8 8 -111 29 -122 25 -6 -2 -15 0 -19 6 -3 6 -18 11 -33 11 l-26 0 34 -30z"/>
<path d="M341 1844 c0 -11 3 -14 6 -6 3 7 2 16 -1 19 -3 4 -6 -2 -5 -13z"/>
<path d="M579 1848 c-7 -92 -6 -139 5 -154 13 -17 14 -16 25 4 6 12 18 22 25
22 8 0 21 11 30 25 19 29 55 34 58 8 5 -58 4 -73 -3 -73 -5 0 -9 -9 -9 -20 0
-32 -18 -23 -35 17 -8 20 -18 34 -20 31 -3 -3 3 -25 13 -49 11 -25 25 -69 31
-98 6 -30 18 -68 25 -85 8 -17 29 -76 47 -131 18 -55 37 -101 41 -103 4 -2 7
-40 7 -85 -1 -45 -4 -71 -6 -57 -3 14 -16 63 -30 110 -14 47 -26 92 -26 100 0
8 -3 20 -8 25 -4 6 -10 23 -13 38 -2 15 -11 34 -20 42 -36 37 -31 7 16 -95 17
-36 32 -81 34 -100 22 -245 37 -318 67 -337 5 -3 7 77 5 176 -2 100 -6 181
-10 181 -4 0 -5 6 -2 13 3 8 0 26 -5 40 -7 18 -7 52 0 105 8 65 11 153 6 235
-1 10 -9 17 -20 17 -17 0 -17 2 -6 16 10 13 10 17 -2 25 -11 7 -9 9 7 9 24 0
27 19 18 108 l-5 52 -120 0 c-88 0 -119 -3 -120 -12z"/>
<path d="M886 1844 c-11 -29 -6 -44 14 -44 11 0 20 5 20 10 0 6 7 10 15 10 8
0 15 9 15 20 0 15 -7 20 -29 20 -17 0 -31 -6 -35 -16z"/>
<path d="M990 1844 c0 -8 5 -12 10 -9 6 3 10 10 10 16 0 5 -4 9 -10 9 -5 0
-10 -7 -10 -16z"/>
<path d="M1082 1833 c0 -16 -2 -39 -5 -53 -2 -14 -5 -48 -6 -76 0 -27 -8 -59
-16 -70 -13 -16 -14 -16 -9 -1 3 9 1 24 -6 32 -6 8 -9 23 -5 34 4 12 0 23 -10
28 -13 7 -14 15 -6 36 8 22 8 25 -5 20 -8 -3 -14 -2 -13 3 4 23 -3 34 -21 34
-11 0 -20 -4 -20 -10 0 -5 -7 -10 -15 -10 -8 0 -15 -9 -15 -20 0 -13 7 -20 20
-20 23 0 27 -27 7 -54 -15 -21 -11 -66 7 -66 6 0 3 -5 -6 -11 -10 -6 -18 -22
-18 -37 0 -21 2 -24 10 -12 8 12 10 11 10 -7 0 -12 5 -25 10 -28 13 -8 13
-102 0 -110 -7 -4 -6 -13 1 -26 7 -15 7 -24 -1 -34 -14 -17 -3 -38 16 -31 12
5 14 -1 8 -32 -8 -42 -14 -54 -14 -26 0 14 -5 11 -20 -13 -11 -18 -24 -33 -30
-33 -5 0 -10 -7 -10 -15 0 -8 -4 -15 -9 -15 -6 0 -7 16 -4 35 5 30 3 35 -15
35 -36 0 -42 -45 -31 -213 6 -84 11 -163 11 -177 -1 -14 -2 -141 -2 -282 -1
-142 -5 -260 -10 -263 -4 -3 -4 -20 0 -39 4 -19 5 -47 3 -63 -3 -17 -1 -23 4
-16 5 8 9 -17 10 -62 1 -41 -3 -75 -8 -75 -5 0 -9 -20 -9 -45 0 -41 2 -45 24
-45 19 0 24 5 23 20 -1 11 -7 20 -14 20 -16 0 -17 15 -3 40 6 11 12 59 14 107
2 48 5 94 5 102 2 25 31 -9 31 -36 0 -13 8 -36 17 -50 12 -18 13 -24 5 -19
-11 7 -12 4 -3 -12 14 -27 15 -54 1 -32 -14 22 -13 -4 2 -36 10 -22 10 -28 -5
-38 -12 -10 -14 -15 -5 -24 7 -7 9 -12 4 -12 -4 0 -1 -7 8 -15 17 -17 122 -21
128 -5 2 5 19 12 38 16 23 4 31 3 22 -4 -11 -7 -11 -10 2 -15 8 -3 200 -6 425
-7 l410 0 -55 52 c-51 49 -82 88 -70 88 3 0 19 -15 35 -32 l31 -33 0 26 c0 14
-5 30 -12 37 -10 9 -8 16 5 29 14 14 19 15 29 4 10 -11 10 -14 1 -18 -19 -7
-16 -23 8 -44 11 -10 22 -25 23 -35 2 -13 13 -17 47 -17 51 1 52 6 7 73 -36
52 -73 147 -94 238 -8 35 -19 73 -26 85 -14 27 -18 77 -22 322 -1 105 -7 204
-13 220 -13 40 -38 44 -52 8 -9 -23 -10 -15 -5 45 3 42 1 72 -4 72 -5 0 -12
13 -15 28 -5 22 -11 28 -29 27 -15 -1 -24 -9 -26 -23 -2 -12 -8 -20 -13 -17
-5 4 -9 1 -9 -4 0 -6 -4 -11 -10 -11 -19 0 -10 20 25 52 26 23 32 34 23 40
-10 6 -10 10 2 19 11 8 12 12 3 16 -7 2 -13 12 -13 21 0 12 -5 10 -17 -8 -9
-14 -18 -27 -20 -29 -2 -3 -13 6 -24 18 -24 25 -18 41 7 20 14 -12 16 -9 12
21 -2 27 -9 38 -32 48 -33 14 -60 16 -51 3 3 -5 1 -12 -5 -16 -5 -3 -10 1 -10
9 0 22 -19 30 -37 14 -13 -10 -17 -10 -20 0 -3 6 -11 12 -18 12 -7 0 -15 9
-18 20 -4 15 -14 20 -37 20 -29 0 -31 2 -29 33 3 37 -25 106 -44 108 -6 1 2 4
18 8 l30 6 0 97 c0 53 3 100 8 104 4 4 7 21 7 38 l0 31 -13 -25 c-7 -14 -21
-26 -32 -27 -17 -3 -16 -1 3 7 12 5 22 18 22 29 0 11 5 21 11 23 6 2 -12 10
-41 17 -52 13 -52 13 -76 -15 -19 -23 -24 -37 -20 -68 2 -21 10 -42 17 -47 9
-5 9 -11 -3 -22 -17 -18 -38 -5 -38 23 0 9 -5 21 -12 28 -9 9 -9 12 1 12 8 0
11 15 9 50 -3 52 -3 52 -54 33 -7 -2 -15 0 -19 6 -3 6 -11 11 -17 11 -6 0 -4
-8 5 -18 10 -10 17 -30 17 -45 0 -14 6 -32 13 -39 22 -22 28 -48 12 -48 -8 0
-15 8 -15 18 0 15 -7 18 -42 16 -24 -1 -51 -5 -60 -9 -12 -5 -18 -2 -19 6 0 8
-2 28 -3 44 -3 25 3 35 28 53 31 22 21 31 -15 12 -13 -7 -19 -7 -19 0 0 5 -8
10 -19 10 -13 0 -18 -8 -19 -27z m208 -34 c0 -24 -4 -30 -17 -27 -22 4 -30 38
-11 49 22 15 28 10 28 -22z m115 -28 c-3 -6 -11 -8 -17 -5 -6 4 -5 9 3 15 16
10 23 4 14 -10z m-206 -62 c-19 -12 -69 -11 -69 0 0 10 58 20 74 12 4 -2 2 -7
-5 -12z m-39 -29 c0 -5 -7 -10 -15 -10 -8 0 -15 5 -15 10 0 6 7 10 15 10 8 0
15 -4 15 -10z m123 -25 c-3 -9 -8 -14 -10 -11 -3 3 -2 9 2 15 9 16 15 13 8 -4z
m57 -83 c28 -6 39 -16 54 -47 10 -22 22 -42 26 -45 10 -7 -10 -24 -32 -28 -17
-3 -22 7 -19 34 1 6 -12 14 -29 17 -18 4 -30 13 -30 22 0 9 -9 15 -25 15 -26
0 -29 -4 -39 -51 -5 -25 -46 -49 -46 -28 0 5 -12 9 -26 9 -22 0 -24 3 -18 23
5 12 9 36 10 52 1 17 3 33 3 37 1 8 119 1 171 -10z m-302 -9 c-4 -22 -22 -20
-26 1 -2 10 3 16 13 16 10 0 15 -7 13 -17z m-25 -65 c3 -21 2 -38 -4 -38 -5 0
-9 19 -9 42 0 49 5 47 13 -4z m177 -47 c0 -5 12 -12 28 -14 23 -3 21 -4 -9 -6
-26 -1 -36 3 -36 14 0 8 4 15 9 15 4 0 8 -4 8 -9z m181 -9 c13 -6 14 -9 4 -19
-7 -7 -17 -8 -26 -2 -12 7 -12 9 1 10 8 1 2 5 -15 9 -27 7 -28 8 -5 8 14 0 32
-2 41 -6z m59 -21 c0 -15 -5 -17 -27 -12 -26 5 -26 6 -5 9 12 2 22 8 22 13 0
5 2 9 5 9 3 0 5 -8 5 -19z m-270 -1 c0 -5 -5 -10 -11 -10 -5 0 -7 5 -4 10 3 6
8 10 11 10 2 0 4 -4 4 -10z m98 -7 c-10 -2 -28 -2 -40 0 -13 2 -5 4 17 4 22 1
32 -1 23 -4z m39 -19 c-3 -3 -38 -6 -77 -6 -39 0 -74 3 -77 6 -4 3 31 6 77 6
46 0 81 -3 77 -6z m207 -17 c4 4 4 0 0 -10 -5 -15 -24 -25 -24 -13 0 2 -3 13
-7 23 -6 15 -4 16 9 6 8 -7 18 -10 22 -6z m-64 -27 c0 -13 -7 -20 -18 -20 -26
0 -34 11 -21 27 17 20 39 16 39 -7z m-269 -14 c13 8 40 -16 33 -28 -3 -5 -12
-7 -20 -4 -7 3 -17 -2 -22 -10 -6 -11 -9 -4 -9 23 -1 21 1 32 4 25 2 -6 9 -9
14 -6z m149 -13 c0 -12 6 -14 28 -8 23 5 25 5 10 -7 -9 -7 -18 -22 -20 -33 -2
-15 -12 -21 -37 -23 -33 -3 -33 -3 -29 31 3 28 1 34 -12 30 -8 -3 -1 4 15 15
32 21 45 20 45 -5z m350 -13 c0 -5 -10 -10 -22 -9 -22 0 -22 1 -3 9 11 5 21 9
23 9 1 1 2 -3 2 -9z m-417 -25 c-3 -9 -8 -14 -10 -11 -3 3 -2 9 2 15 9 16 15
13 8 -4z m-23 -47 c0 -9 3 -9 9 1 8 12 12 12 25 2 22 -18 8 -41 -25 -41 -24 0
-29 4 -29 25 0 14 5 25 10 25 6 0 10 -6 10 -12z m-218 -53 c-3 -28 0 -45 7
-45 6 0 12 19 12 43 l1 42 10 -48 c8 -35 7 -59 -3 -92 -15 -49 -20 -53 -39
-30 -9 11 -10 22 -3 38 6 12 8 48 5 80 -2 31 -1 57 4 57 5 0 8 -20 6 -45z
m-79 -12 c-15 -5 -18 -63 -3 -63 6 0 10 8 11 18 0 9 9 -1 18 -23 10 -22 15
-47 11 -55 -13 -26 -21 -102 -11 -96 5 4 13 2 16 -4 9 -14 35 6 35 26 0 8 5
14 10 14 12 0 12 -2 0 -35 -8 -22 -7 -25 7 -23 14 3 19 -12 29 -92 14 -103 11
-126 -17 -153 -13 -12 -19 -32 -19 -62 0 -43 12 -60 23 -32 3 6 6 -1 6 -16 1
-24 -1 -26 -18 -18 -17 10 -18 6 -16 -77 2 -48 1 -81 -2 -73 -4 10 -10 5 -19
-15 l-12 -29 -1 43 c-1 26 -5 41 -11 37 -6 -3 -10 4 -10 17 0 16 3 19 9 10 13
-22 21 9 11 49 -7 31 -8 32 -9 7 -1 -16 -5 -28 -11 -28 -14 0 -13 83 1 114 9
19 9 29 0 40 -7 9 -8 16 -2 20 6 4 6 18 1 36 -5 17 -9 34 -9 38 -2 38 -15 92
-22 92 -5 0 -9 -8 -9 -17 0 -10 -5 -25 -10 -33 -8 -11 -10 8 -10 65 0 44 0 98
-1 120 -4 113 19 231 41 208 3 -3 -1 -8 -7 -10z m832 -65 c-8 -37 -25 -61 -25
-35 0 17 20 67 27 67 3 0 2 -15 -2 -32z m-68 -30 c-3 -8 -6 -5 -6 6 -1 11 2
17 5 13 3 -3 4 -12 1 -19z m-492 -36 c-7 -8 -35 7 -35 18 0 6 7 6 20 -2 10 -7
17 -14 15 -16z m420 -1 c3 -5 1 -12 -5 -16 -5 -3 -10 1 -10 9 0 18 6 21 15 7z
m115 -43 c0 -7 -4 -19 -9 -27 -6 -9 -8 -5 -8 13 0 14 3 26 8 26 5 0 9 -6 9
-12z m107 -40 c-3 -8 -6 -5 -6 6 -1 11 2 17 5 13 3 -3 4 -12 1 -19z m-143
-108 c-7 -36 -14 -75 -14 -87 0 -13 -5 -23 -11 -23 -7 0 -9 8 -4 23 4 12 9 50
12 84 3 35 9 60 14 57 5 -3 9 0 9 7 0 7 2 10 4 8 2 -2 -2 -33 -10 -69z m-193
-3 c-17 -17 -24 -1 -10 25 12 21 14 21 17 4 2 -10 -1 -23 -7 -29z m307 -7 c-2
-6 -8 -6 -18 0 -13 9 -13 11 0 20 15 10 25 0 18 -20z m-318 -30 c0 -5 -4 -10
-10 -10 -5 0 -10 5 -10 10 0 6 5 10 10 10 6 0 10 -4 10 -10z m315 0 c-3 -5
-10 -10 -16 -10 -5 0 -9 5 -9 10 0 6 7 10 16 10 8 0 12 -4 9 -10z m-898 -62
c-3 -8 -6 -5 -6 6 -1 11 2 17 5 13 3 -3 4 -12 1 -19z m774 -101 c-8 -8 -11 -5
-11 9 0 27 14 41 18 19 2 -9 -1 -22 -7 -28z m-385 -19 c7 -23 -9 -38 -35 -33
-9 2 -24 4 -33 4 -42 2 -4 49 39 49 14 0 25 -8 29 -20z m57 2 c20 -23 22 -40
5 -40 -16 0 -48 31 -48 47 0 19 23 16 43 -7z m361 -4 c-3 -9 -10 -16 -15 -16
-6 0 -5 9 1 21 13 24 24 20 14 -5z m-807 -58 c-3 -7 -5 -2 -5 12 0 14 2 19 5
13 2 -7 2 -19 0 -25z m793 -3 c-8 -21 -14 -25 -22 -17 -9 9 -7 17 7 32 10 11
20 18 22 16 2 -2 -1 -16 -7 -31z m-663 -107 c-2 -13 -4 -5 -4 17 -1 22 1 32 4
23 2 -10 2 -28 0 -40z m644 21 c-9 -22 -10 -22 -10 -3 -1 11 2 24 6 27 12 12
14 0 4 -24z m-531 -19 c0 -22 -3 -40 -8 -40 -4 0 -6 18 -4 40 2 22 6 40 8 40
2 0 4 -18 4 -40z m-243 -42 c-3 -8 -6 -5 -6 6 -1 11 2 17 5 13 3 -3 4 -12 1
-19z m258 -100 c-2 -33 -6 -62 -8 -65 -21 -20 -34 56 -21 120 5 22 9 26 20 17
9 -8 12 -29 9 -72z m722 30 c-3 -8 -6 -5 -6 6 -1 11 2 17 5 13 3 -3 4 -12 1
-19z m-884 -24 c-5 -13 -23 -20 -23 -10 0 2 -3 11 -6 19 -4 12 0 14 15 10 12
-3 17 -11 14 -19z m106 -96 c1 -5 -3 -8 -9 -8 -5 0 -10 12 -9 28 0 24 1 25 9
7 5 -11 9 -23 9 -27z m861 -11 c0 -5 -4 -5 -10 -2 -5 3 -10 14 -10 23 0 15 2
15 10 2 5 -8 10 -19 10 -23z m-789 1 c10 -18 9 -20 -6 -15 -9 4 -25 7 -36 7
-10 0 -19 7 -19 15 0 24 47 19 61 -7z m-13 -40 c-3 -7 -11 -13 -18 -13 -7 0
-15 6 -17 13 -3 7 4 12 17 12 13 0 20 -5 18 -12z m292 -23 c0 -16 -9 -19 -34
-9 -25 9 -19 24 9 24 16 0 25 -6 25 -15z m-22 -47 c-9 -7 -17 -19 -20 -26 -2
-8 -19 -20 -37 -28 -30 -13 -32 -12 -21 1 7 8 19 15 26 15 8 0 14 7 14 15 0 7
8 19 18 24 24 15 39 13 20 -1z m-258 -22 c0 -11 -19 -15 -25 -6 -3 5 1 10 9
10 9 0 16 -2 16 -4z m-40 -26 c0 -5 -4 -10 -10 -10 -5 0 -10 5 -10 10 0 6 5
10 10 10 6 0 10 -4 10 -10z"/>
<path d="M987 913 c-4 -3 -7 -11 -7 -17 0 -6 5 -5 12 2 6 6 9 14 7 17 -3 3 -9
2 -12 -2z"/>
<path d="M1615 1851 c3 -5 1 -12 -3 -15 -12 -7 -13 -176 -1 -176 5 0 9 -7 9
-15 0 -8 -5 -15 -11 -15 -7 0 0 -11 15 -25 34 -32 35 -71 1 -87 -27 -12 -32
-24 -13 -30 12 -4 96 51 97 64 1 4 -4 19 -9 33 -9 23 -13 25 -25 15 -20 -17
-20 1 -1 43 14 30 31 105 43 185 5 31 4 32 -30 32 -19 0 -38 -6 -41 -12 -5
-10 -7 -10 -12 0 -3 6 -10 12 -15 12 -6 0 -8 -4 -4 -9z m70 -61 c3 -5 0 -10
-8 -10 -10 0 -13 -8 -9 -25 2 -14 2 -25 -2 -25 -7 0 -49 41 -44 43 2 1 12 7
23 14 25 15 32 15 40 3z m-4 -253 c-8 -8 -11 -7 -11 4 0 9 3 19 7 23 4 4 9 2
11 -4 3 -7 -1 -17 -7 -23z"/>
<path d="M1770 1846 c0 -8 4 -17 9 -20 15 -10 5 -71 -13 -74 -11 -2 -14 1 -10
11 3 8 1 18 -4 21 -5 3 -9 -10 -10 -29 -1 -31 2 -35 23 -35 26 0 34 -15 13
-23 -7 -2 -2 -2 11 0 21 4 23 2 12 -11 -11 -13 -8 -19 15 -41 16 -15 39 -25
58 -25 41 -1 66 -21 66 -54 0 -32 -35 -37 -45 -6 -3 11 -11 20 -16 20 -25 0
-108 -33 -103 -41 3 -5 0 -9 -5 -9 -6 0 -11 6 -11 14 0 8 -7 16 -15 20 -12 4
-15 -6 -15 -59 0 -53 -3 -63 -15 -59 -12 5 -15 -2 -15 -30 0 -20 4 -36 10 -36
5 0 9 8 7 18 -1 9 3 19 8 22 6 3 11 -7 13 -21 3 -24 8 -27 50 -32 28 -3 53 -1
60 6 11 8 16 7 23 -6 6 -9 20 -17 32 -17 20 0 20 2 -8 28 -49 47 -115 125
-115 137 0 5 27 -18 60 -52 57 -60 60 -62 90 -51 23 8 35 7 43 -1 21 -21 58
-11 98 26 40 38 49 55 27 52 -41 -5 -138 3 -138 11 0 6 38 10 95 10 92 0 96 1
118 27 12 16 52 59 90 98 38 39 67 78 67 90 0 15 2 17 9 6 7 -11 18 -6 53 28
23 23 63 55 88 71 l45 30 -181 0 -182 0 -4 -24 c-3 -14 -1 -29 3 -33 5 -5 18
-42 29 -83 12 -41 23 -82 26 -91 4 -12 0 -16 -18 -15 -17 1 -23 7 -23 24 0 24
-20 42 -45 42 -12 -1 -11 -4 4 -15 24 -18 15 -21 -73 -29 -36 -3 -75 -13 -89
-22 -13 -9 -25 -14 -27 -12 -9 9 -9 73 0 75 6 1 9 -6 7 -15 -2 -14 0 -14 13 2
8 11 16 42 16 70 1 29 4 39 6 24 5 -31 18 -35 47 -13 27 20 43 19 49 -5 6 -22
27 -28 27 -7 0 7 -7 23 -16 35 -9 13 -14 34 -12 46 4 21 3 22 -24 12 -30 -11
-39 -46 -11 -46 9 0 13 -3 10 -6 -7 -8 -67 15 -82 31 -5 6 -15 20 -21 30 -9
17 -24 20 -98 23 -71 2 -86 0 -86 -12z m598 -27 c-7 -5 -22 -9 -33 -9 -19 1
-19 1 -2 15 11 7 26 11 34 8 12 -5 12 -7 1 -14z m-58 -8 c0 -8 -121 -23 -128
-16 -3 3 83 21 116 24 6 0 12 -3 12 -8z m-280 -381 c-8 -5 -24 -10 -35 -10
-17 0 -17 2 -5 10 8 5 24 10 35 10 17 0 17 -2 5 -10z"/>
<path d="M2531 1843 c-5 -10 -48 -49 -95 -88 -87 -70 -106 -100 -106 -162 0
-26 7 -27 44 -13 23 8 26 7 26 -10 0 -11 -7 -20 -15 -20 -8 0 -33 -6 -55 -12
-62 -20 -50 -35 27 -34 24 1 43 -2 43 -6 0 -9 -4 -10 -136 -9 l-101 0 -44 -45
-43 -44 62 0 c35 0 62 -4 62 -10 0 -6 -18 -8 -45 -6 -25 3 -45 1 -45 -3 0 -5
-15 -9 -34 -9 -36 0 -56 -8 -56 -21 0 -19 384 -37 427 -20 16 7 23 13 16 16
-7 3 -13 18 -13 34 0 20 4 28 12 23 7 -4 8 -3 4 5 -4 6 -3 18 3 25 9 10 8 15
-4 20 -23 9 -18 24 8 19 39 -6 52 16 48 80 -1 15 -3 15 -21 -3 -21 -21 -50
-27 -50 -11 0 5 9 12 19 16 12 3 21 19 25 40 5 23 11 32 21 29 10 -4 15 7 21
42 5 33 3 49 -5 52 -6 2 -11 8 -11 13 0 6 4 8 9 4 6 -3 12 16 16 42 3 27 8 56
10 66 2 9 -1 17 -6 17 -4 0 -13 -8 -18 -17z m-116 -172 c-6 -5 -21 -12 -35
-16 -22 -7 -23 -6 -11 9 7 9 23 16 34 16 13 0 17 -4 12 -9z m-42 -280 c28 0
46 -5 42 -11 -3 -5 -33 -7 -68 -4 -34 3 -77 7 -94 8 -59 5 -47 15 13 12 33 -2
81 -4 107 -5z"/>
<path d="M2586 1788 c-3 -40 -7 -101 -10 -135 l-4 -63 41 -11 c30 -8 37 -13
26 -20 -8 -5 -26 -9 -41 -9 -26 0 -28 -3 -27 -37 1 -24 3 -29 6 -15 4 22 43
33 43 12 0 -5 -4 -10 -10 -10 -5 0 -10 -4 -10 -10 0 -5 24 -10 53 -10 40 1 48
3 35 11 -21 12 -24 39 -4 39 12 0 15 30 15 165 l2 165 -55 0 -54 0 -6 -72z"/>
<path d="M1020 1840 c0 -5 5 -10 10 -10 6 0 10 5 10 10 0 6 -4 10 -10 10 -5 0
-10 -4 -10 -10z"/>
<path d="M1521 1834 c0 -11 3 -14 6 -6 3 7 2 16 -1 19 -3 4 -6 -2 -5 -13z"/>
<path d="M879 1723 c-1 -32 -1 -79 0 -105 1 -27 -2 -48 -7 -48 -5 0 -9 -11 -9
-25 0 -14 3 -25 8 -25 5 0 9 11 9 24 0 14 5 28 11 31 6 4 8 30 5 66 -2 34 0
57 5 53 5 -3 9 0 9 6 0 6 5 8 10 5 6 -3 10 5 10 19 0 18 -4 24 -15 20 -13 -6
-20 6 -16 29 0 4 -3 7 -9 7 -5 0 -11 -26 -11 -57z"/>
<path d="M355 1723 c-3 -10 -1 -19 4 -21 6 -2 11 -31 11 -65 0 -68 10 -94 31
-82 8 5 6 -1 -5 -13 -12 -13 -16 -30 -13 -44 3 -13 8 -34 11 -48 5 -21 5 -22
-3 -5 -18 39 -3 -149 18 -239 12 -51 19 -103 16 -120 l-6 -31 15 25 c9 14 16
39 16 55 1 31 20 76 54 130 89 138 86 130 55 138 -17 5 -19 9 -10 26 6 11 20
23 31 26 11 3 20 13 20 21 0 8 7 14 15 14 10 0 15 -10 15 -31 0 -17 4 -28 10
-24 12 7 13 85 2 100 -4 6 -25 10 -47 10 -33 0 -41 4 -43 21 -2 16 4 23 24 28
35 9 13 26 -24 20 -22 -4 -24 -3 -12 10 11 14 7 15 -34 10 -31 -5 -46 -3 -46
5 0 6 -11 11 -23 11 -13 0 -31 8 -40 18 -16 17 -14 20 39 41 63 27 65 41 2 20
-32 -10 -42 -11 -46 -1 -6 18 -29 15 -37 -5z m165 -248 c0 -8 -4 -15 -10 -15
-5 0 -10 7 -10 15 0 8 5 15 10 15 6 0 10 -7 10 -15z m-35 -33 c-3 -4 -10 0
-15 8 -6 9 -5 17 3 22 13 8 24 -19 12 -30z m35 4 c0 -3 -4 -8 -10 -11 -5 -3
-10 -1 -10 4 0 6 5 11 10 11 6 0 10 -2 10 -4z m-53 -48 c-3 -8 -6 -5 -6 6 -1
11 2 17 5 13 3 -3 4 -12 1 -19z m9 -45 c-10 -10 -19 5 -10 18 6 11 8 11 12 0
2 -7 1 -15 -2 -18z"/>
<path d="M77 1669 c7 -7 15 -10 18 -7 3 3 -2 9 -12 12 -14 6 -15 5 -6 -5z"/>
<path d="M288 1673 c7 -3 16 -2 19 1 4 3 -2 6 -13 5 -11 0 -14 -3 -6 -6z"/>
<path d="M203 1624 c0 -9 11 -14 28 -14 15 0 30 -4 33 -9 3 -5 16 -7 27 -4 27
7 10 18 -48 31 -31 7 -40 6 -40 -4z"/>
<path d="M1508 1634 c-9 -18 -9 -94 0 -94 12 0 21 76 11 92 -4 5 -9 6 -11 2z"/>
<path d="M2251 1585 c-43 -48 -61 -75 -48 -75 2 0 22 9 45 20 22 11 45 20 50
20 12 0 22 72 12 83 -4 4 -30 -17 -59 -48z"/>
<path d="M1610 1545 c0 -8 5 -15 10 -15 6 0 10 7 10 15 0 8 -4 15 -10 15 -5 0
-10 -7 -10 -15z"/>
<path d="M661 1534 c-2 -20 21 -74 30 -74 6 0 6 7 0 18 -5 9 -14 28 -19 42 -6
14 -11 20 -11 14z"/>
<path d="M940 1490 c0 -5 5 -10 10 -10 6 0 10 5 10 10 0 6 -4 10 -10 10 -5 0
-10 -4 -10 -10z"/>
<path d="M1497 1494 c-4 -4 -7 -20 -7 -36 0 -16 -5 -28 -12 -28 -9 0 -8 -4 2
-10 21 -13 37 -12 42 3 6 17 -16 79 -25 71z"/>
<path d="M888 1478 c-3 -7 -2 -49 1 -93 7 -93 20 -66 16 33 -2 63 -8 84 -17
60z"/>
<path d="M1650 1451 c0 -49 16 -62 31 -24 7 18 7 29 0 31 -5 2 -7 10 -4 18 3
8 -1 14 -11 14 -12 0 -16 -10 -16 -39z"/>
<path d="M77 1474 c-4 -4 -6 -23 -6 -43 1 -22 3 -28 6 -16 3 11 10 26 16 33
11 14 -4 38 -16 26z"/>
<path d="M150 1452 c0 -6 -9 -14 -20 -17 -12 -4 -20 -15 -20 -30 0 -12 -9 -33
-21 -46 -11 -13 -18 -19 -15 -14 8 18 -7 32 -42 40 -31 6 -33 5 -30 -17 2 -19
8 -22 31 -20 15 1 27 -2 27 -7 0 -5 -12 -11 -27 -13 -36 -4 -45 -38 -11 -39
l23 0 -22 -9 c-22 -9 -23 -13 -23 -158 l0 -148 41 -1 c26 -1 47 4 57 14 11 11
27 14 56 10 47 -7 116 12 116 31 0 10 -19 12 -89 8 -73 -5 -91 -3 -102 10 -11
14 -1 15 102 13 l114 -3 3 52 3 52 -50 -6 c-35 -4 -57 -1 -71 9 -19 14 -19 14
5 27 14 7 25 19 25 27 0 22 25 15 55 -17 15 -16 32 -27 37 -24 9 6 11 141 2
196 -6 34 -9 37 -68 53 -33 9 -67 22 -73 27 -9 7 -13 7 -13 0z m-2 -123 c2
-18 1 -21 -7 -9 -5 8 -8 17 -5 21 2 4 -1 10 -6 12 -6 3 -5 4 2 3 7 -1 14 -13
16 -27z m-2 -165 c-3 -9 -6 -18 -6 -20 0 -2 -5 -4 -11 -4 -5 0 -7 5 -4 10 3 6
-2 10 -12 11 -16 0 -16 1 2 9 30 13 38 12 31 -6z m54 -34 c0 -5 -2 -10 -4 -10
-3 0 -8 5 -11 10 -3 6 -1 10 4 10 6 0 11 -4 11 -10z m-32 -18 c1 -5 -16 -12
-39 -16 -42 -7 -67 3 -55 22 8 13 89 8 94 -6z m56 -13 c-3 -5 -10 -7 -15 -3
-5 3 -7 10 -3 15 3 5 10 7 15 3 5 -3 7 -10 3 -15z"/>
<path d="M2569 1424 c-7 -55 -5 -104 5 -101 10 3 12 13 15 71 1 19 2 18 24 -2
13 -12 33 -22 44 -22 16 0 23 -9 31 -37 l10 -38 1 43 c1 30 -3 42 -13 42 -18
0 -29 27 -13 34 7 2 -7 5 -30 5 -23 1 -48 4 -57 7 -9 3 -17 2 -17 -2z"/>
<path d="M1948 1373 c6 -2 10 -9 6 -14 -9 -15 16 -10 32 6 14 13 12 15 -18 14
-18 0 -27 -3 -20 -6z"/>
<path d="M582 1339 c-7 -11 -11 -23 -9 -25 7 -7 29 24 25 36 -2 6 -9 1 -16
-11z"/>
<path d="M641 1338 c-1 -14 -6 -28 -11 -30 -6 -2 -1 -9 10 -16 18 -11 20 -10
19 10 0 13 -4 32 -9 43 -8 18 -9 17 -9 -7z"/>
<path d="M1760 1340 c0 -5 4 -11 9 -15 5 -3 8 -17 5 -30 -3 -20 0 -25 16 -25
15 0 20 -7 20 -29 0 -39 15 -47 34 -19 9 12 16 17 16 11 0 -8 12 -10 38 -6 41
6 68 23 36 23 -19 0 -44 17 -44 31 0 3 20 4 45 1 25 -2 51 0 58 6 7 6 26 8 46
4 41 -9 111 -3 111 9 0 5 -19 9 -42 10 -94 2 -194 8 -215 14 -14 3 -23 1 -23
-6 0 -8 -4 -8 -13 -1 -17 15 -97 32 -97 22z m110 -60 c0 -5 -2 -10 -4 -10 -3
0 -8 5 -11 10 -3 6 -1 10 4 10 6 0 11 -4 11 -10z"/>
<path d="M2160 1285 c0 -11 -11 -15 -37 -16 -58 0 -124 -7 -130 -12 -2 -3 1
-15 7 -27 6 -12 14 -19 17 -16 3 3 14 1 25 -5 10 -5 69 -10 131 -11 109 -1
112 -1 110 20 -2 18 2 22 26 22 16 0 31 -6 35 -15 6 -16 36 -21 36 -6 0 5 11
16 25 25 21 14 25 14 25 2 0 -9 -6 -21 -13 -27 -11 -11 -10 -16 6 -32 18 -18
19 -18 32 -1 7 10 12 37 11 61 -1 40 1 42 29 46 23 3 20 4 -12 5 -24 1 -42 -1
-42 -5 3 -20 -2 -27 -10 -14 -11 17 -131 29 -131 13 0 -5 -15 -10 -32 -9 -18
0 -40 -2 -48 -4 -8 -2 -14 2 -12 9 1 7 -8 12 -23 12 -16 0 -25 -6 -25 -15z"/>
<path d="M2560 1265 c0 -14 5 -25 10 -25 6 0 10 5 10 10 0 6 7 10 15 10 8 0
15 -4 15 -9 0 -14 38 -20 68 -11 15 5 20 9 13 9 -12 1 -12 4 -3 13 20 20 14
23 -58 26 -69 3 -70 2 -70 -23z"/>
<path d="M590 1260 c0 -6 -18 -35 -40 -65 -42 -57 -46 -65 -30 -65 5 0 17 12
25 28 9 15 13 18 10 7 -4 -11 -12 -36 -17 -55 -6 -19 -14 -40 -19 -47 -7 -7
-5 -13 3 -16 10 -4 11 -7 1 -18 -11 -11 -13 -11 -13 1 0 9 -7 7 -22 -7 -18
-16 -28 -19 -45 -12 -13 4 -23 15 -23 24 0 8 -4 15 -9 15 -5 0 -17 3 -25 6
-12 5 -15 2 -10 -10 3 -9 3 -28 0 -42 -6 -21 -10 -24 -21 -14 -11 9 -18 8 -33
-7 -20 -19 -52 -79 -52 -97 0 -7 -15 -18 -33 -25 -29 -13 -30 -14 -9 -18 18
-4 21 -9 16 -31 -17 -71 9 -76 68 -14 19 21 50 65 67 99 34 66 55 75 44 20 -8
-44 -40 -107 -71 -139 l-26 -28 30 -1 29 -1 -30 -8 c-26 -7 -24 -8 20 -9 143
-6 443 -3 453 3 22 14 12 26 -22 26 -22 0 -36 6 -40 16 -4 11 -13 14 -31 10
-30 -8 -33 -1 -6 14 15 7 23 6 35 -6 9 -8 23 -14 31 -12 12 2 12 7 2 24 -41
71 -75 143 -82 172 -3 17 -11 32 -16 32 -6 0 -7 5 -4 10 4 6 -6 10 -22 10 -24
1 -25 2 -11 11 16 9 16 13 4 37 -14 28 -24 65 -30 119 -7 51 -16 73 -32 73 -8
0 -14 -5 -14 -10z m-5 -400 c21 0 19 -17 -4 -25 -12 -4 -17 -12 -14 -24 6 -25
-49 -58 -107 -66 -45 -5 -45 -5 -13 7 49 20 93 62 93 91 0 14 3 33 7 43 6 15
7 15 14 -4 5 -12 15 -22 24 -22z m94 -93 c16 -20 3 -27 -52 -27 -42 0 -48 2
-37 14 10 13 30 20 66 25 6 0 17 -5 23 -12z"/>
<path d="M1960 1230 c0 -5 5 -10 10 -10 6 0 10 5 10 10 0 6 -4 10 -10 10 -5 0
-10 -4 -10 -10z"/>
<path d="M2567 1214 c3 -8 11 -14 19 -14 21 0 17 17 -5 23 -14 3 -18 1 -14 -9z"/>
<path d="M1990 1195 c0 -5 5 -17 10 -25 5 -8 10 -10 10 -5 0 6 -5 17 -10 25
-5 8 -10 11 -10 5z"/>
<path d="M2470 1182 c0 -5 7 -13 16 -16 10 -4 14 -1 12 6 -5 15 -28 23 -28 10z"/>
<path d="M2678 1183 c7 -3 16 -2 19 1 4 3 -2 6 -13 5 -11 0 -14 -3 -6 -6z"/>
<path d="M1939 1162 c-2 -6 -19 -18 -38 -29 -19 -10 -36 -24 -39 -31 -5 -17
29 -15 55 3 15 11 22 12 25 3 3 -7 12 -9 22 -5 22 9 18 60 -5 65 -10 2 -19 -1
-20 -6z"/>
<path d="M2594 1158 c-9 -14 -4 -16 54 -24 44 -6 52 -4 52 10 0 9 -8 16 -17
17 -10 1 -33 2 -51 4 -18 1 -35 -2 -38 -7z"/>
<path d="M2010 1125 c0 -8 4 -15 10 -15 5 0 7 7 4 15 -4 8 -8 15 -10 15 -2 0
-4 -7 -4 -15z"/>
<path d="M347 1116 c-7 -18 1 -26 25 -26 11 0 18 7 18 20 0 23 -35 28 -43 6z"/>
<path d="M1845 1070 c3 -5 1 -10 -4 -10 -6 0 -11 -5 -11 -11 0 -8 4 -9 13 0 8
6 17 8 21 4 4 -4 4 0 0 10 -3 9 -10 17 -16 17 -5 0 -6 -4 -3 -10z"/>
<path d="M20 950 c0 -5 4 -10 9 -10 6 0 13 5 16 10 3 6 -1 10 -9 10 -9 0 -16
-4 -16 -10z"/>
<path d="M218 933 c-41 -28 -41 -48 1 -38 35 9 51 23 51 46 0 24 -6 23 -52 -8z"/>
<path d="M420 670 c0 -5 10 -10 23 -10 18 0 19 2 7 10 -19 13 -30 13 -30 0z"/>
<path d="M210 290 c0 -5 4 -10 9 -10 6 0 13 5 16 10 3 6 -1 10 -9 10 -9 0 -16
-4 -16 -10z"/>
<path d="M250 284 c0 -8 5 -12 10 -9 6 4 8 11 5 16 -9 14 -15 11 -15 -7z"/>
<path d="M55 260 c27 -12 43 -12 25 0 -8 5 -22 9 -30 9 -10 0 -8 -3 5 -9z"/>
<path d="M186 260 c-11 -3 -20 -14 -22 -23 -2 -13 6 -17 32 -17 36 0 40 6 21
31 -8 10 -19 14 -31 9z"/>
<path d="M8 243 c7 -3 16 -2 19 1 4 3 -2 6 -13 5 -11 0 -14 -3 -6 -6z"/>
<path d="M125 239 c-10 -15 1 -23 20 -15 9 3 13 10 10 16 -8 13 -22 13 -30 -1z"/>
<path d="M240 200 c20 -13 43 -13 35 0 -3 6 -16 10 -28 10 -18 0 -19 -2 -7
-10z"/>
<path d="M405 190 c4 -6 17 -9 30 -7 40 5 41 17 1 17 -23 0 -35 -4 -31 -10z"/>
<path d="M317 41 c-21 -36 -21 -41 -2 -41 8 0 17 11 21 25 10 39 0 48 -19 16z"/>
<path d="M2200 50 c0 -5 5 -10 11 -10 5 0 7 -4 4 -10 -3 -6 1 -7 10 -4 12 5
13 9 4 20 -13 16 -29 18 -29 4z"/>
<path d="M190 23 c0 -22 2 -25 10 -13 6 10 10 11 10 3 0 -8 14 -13 35 -13 19
0 35 3 35 6 0 13 -47 43 -67 44 -18 0 -23 -6 -23 -27z"/>
<path d="M2070 21 c0 -15 6 -21 21 -21 25 0 22 33 -4 38 -12 2 -17 -3 -17 -17z"/>
<path d="M2021 14 c0 -11 3 -14 6 -6 3 7 2 16 -1 19 -3 4 -6 -2 -5 -13z"/>
</g>
</svg>
